<?xml version="1.0" encoding="UTF-8"?>
<svg enable-background="new 0 0 100 100" viewBox="0 0 100 100" xmlns="http://www.w3.org/2000/svg">
 <path d="m93.161.071c-33.501-1.114-60.941,11.243-60.941,11.243l-.02,62.709c-3.411-1.354-7.559-1.675-11.772-.651-9.083,2.207-15.031,9.82-13.285,17.007s10.524,11.225 19.606,9.019c8.564-2.081 14.338-8.969 13.507-15.772v-46.855c0,0 19.404-6.784 44.573-8.485v34.849c-3.374-1.292-7.443-1.585-11.579-.58-9.083,2.206-15.031,9.819-13.285,17.007s10.523,11.224 19.606,9.018c7.931-1.927 13.471-7.977 13.587-14.264l.003.004v-74.249z"/>
</svg>
